Coordinates
version=1
nRows=12
nColumns=23
inDegrees=yes

Units are S.I. units (second, meters, Newtons, ...)
If the header above contains a line with 'inDegrees', this indicates whether rotational values are in degrees (yes) or radians (no).

endheader
time	pelvis_tilt	pelvis_list	pelvis_rotation	pelvis_tx	pelvis_ty	pelvis_tz	hip_flexion_r	hip_adduction_r	hip_rotation_r	knee_angle_r	knee_angle_r_beta	ankle_angle_r	subtalar_angle_r	mtp_angle_r	hip_flexion_l	hip_adduction_l	hip_rotation_l	knee_angle_l	knee_angle_l_beta	ankle_angle_l	subtalar_angle_l	mtp_angle_l
      7.50000000	    -15.83878893	     -0.23393427	     -2.41779349	      2.15616009	      1.11270521	      1.02769491	     36.46842265	     -1.69064713	    -15.73638768	     26.21277129	      0.45749917	      1.32352980	      3.88135680	      0.00000000	      2.71760468	     -4.31984310	    -15.14250801	     31.27913947	      0.54592397	     -8.57723880	      1.91711045	      0.00000000
      7.50666667	    -15.84479271	     -0.28730689	     -2.54795557	      2.15658973	      1.11232324	      1.02927958	     35.96245572	     -0.92621087	    -15.51129828	     23.39601953	      0.40833757	      2.36537825	      4.96581011	      0.00000000	      2.85995645	     -4.74805214	    -14.88732883	     33.29049327	      0.58102872	     -8.06389424	      0.83893769	      0.00000000
      7.51333333	    -15.69017916	     -0.52943819	     -2.57776457	      2.15703368	      1.11175921	      1.03073842	     35.17257831	      0.03175991	    -14.98284555	     20.56675531	      0.35895760	      2.85666215	      5.19744286	      0.00000000	      2.95924732	     -5.39423739	    -14.50854671	     35.56588097	      0.62074172	     -7.45352185	      0.03524483	      0.00000000
      7.52000000	    -15.58543329	     -0.65062845	     -2.65649163	      2.15728061	      1.11059275	      1.03208539	     34.56641593	      0.81376799	    -14.33760739	     18.22417473	      0.31807185	      3.47933996	      5.64351290	      0.00000000	      3.19330877	     -5.84298282	    -13.98510541	     37.95677152	      0.66247064	     -6.88911392	     -0.91380736	      0.00000000
      7.52666667	    -15.43650080	     -0.64842316	     -2.85328330	      2.15737982	      1.10894810	      1.03341387	     34.07440019	      1.45257335	    -13.47485578	     16.45252597	      0.28715075	      4.29197819	      6.24697246	      0.00000000	      3.43683952	     -6.12825120	    -13.52434551	     40.45117560	      0.70600620	     -6.40073684	     -1.80239725	      0.00000000
      7.53333333	    -15.14892845	     -0.83532034	     -3.00135911	      2.15747759	      1.10714635	      1.03460605	     33.23014270	      2.36977151	    -11.78647246	     14.48725490	      0.25285030	      4.16039827	      5.07382618	      0.00000000	      3.63559622	     -6.61462414	    -13.00314674	     43.14149368	      0.75296111	     -5.94768428	     -2.32954778	      0.00000000
      7.54000000	    -14.87854757	     -0.81751253	     -3.24405600	      2.15734936	      1.10471075	      1.03570012	     32.78625416	      2.81929361	    -11.06170434	     13.63083492	      0.23790295	      4.66989176	      5.67247975	      0.00000000	      3.92264380	     -6.81334501	    -12.47123507	     45.90299961	      0.80115848	     -5.65672004	     -3.10399512	      0.00000000
      7.54666667	    -14.56255726	     -0.85676904	     -3.47539495	      2.15713319	      1.10188862	      1.03666322	     32.35344558	      3.25257969	    -10.43444255	     13.17000075	      0.22985988	      4.93276609	      6.07335121	      0.00000000	      4.25616010	     -7.06479919	    -11.93273187	     48.81675041	      0.85201302	     -5.43953563	     -3.80718410	      0.00000000
      7.55333333	    -14.18628407	     -0.91783187	     -3.73431091	      2.15680732	      1.09866160	      1.03754386	     31.98270108	      3.63825929	     -9.91417622	     13.22873607	      0.23088500	      5.02842261	      6.32692225	      0.00000000	      4.60179045	     -7.31299172	    -11.40664632	     51.83586287	      0.90470648	     -5.36579750	     -4.42727387	      0.00000000
      7.56000000	    -14.04390377	     -0.88818128	     -3.94542873	      2.15617936	      1.09458050	      1.03820247	     32.06193923	      3.80775771	     -9.74369256	     13.92574503	      0.24305010	      5.12178945	      6.65839004	      0.00000000	      5.34213302	     -7.46026016	    -10.82835549	     55.02518763	      0.96037070	     -5.36686783	     -4.93551354	      0.00000000
      7.56666667	    -13.71665801	     -0.90546168	     -4.21490262	      2.15556325	      1.09029102	      1.03885506	     32.04574062	      3.97610008	     -9.66212760	     15.08623988	      0.26330456	      5.25589790	      6.85175761	      0.00000000	      5.90456899	     -7.64331376	    -10.34714918	     58.22406095	      1.01620157	     -5.52622158	     -5.53633946	      0.00000000
      7.57333333	    -13.48063005	     -0.84851536	     -4.50324770	      2.15480449	      1.08534371	      1.03930268	     32.32966837	      3.96234025	     -9.84108051	     16.88579309	      0.29471269	      5.50863812	      7.14158282	      0.00000000	      6.63215446	     -7.72891570	     -9.90626632	     61.47286633	      1.07290392	     -5.81557877	     -6.20054062	      0.00000000
